# xmcd
#
# Track frame offsets: 
#        150
#        17993
#        33856
#        47273
#        67173
#        80814
#        94896
#        110753
#        124879
#        144090
#        164869
#        182481
#
# Disc length: 2624 seconds
#
# Revision: 0
# Processed by: cddbd v1.5.2PL0 Copyright (c) Steve Scherf et al.
# Submitted via: ExactAudioCopyFreeDBPlugin 1.0
#
DISCID=a70a3e0c
DTITLE=Anthony David - The Powerful Now
DYEAR=2016
DGENRE=R&B
TTITLE0=Ride On
TTITLE1=The Powerful Now
TTITLE2=Beautiful Problem
TTITLE3=Booed Up (feat. Mylah)
TTITLE4=I Don't Mind
TTITLE5=Amber
TTITLE6=Out of My League
TTITLE7=Road to Baxley
TTITLE8=Ayodele (Joy Comes Home)
TTITLE9=Never Again (feat. Reesa Renee)
TTITLE10=Charge (feat. Carmen Rogers)
TTITLE11=Inevitable
EXTD=
EXTT0=
EXTT1=
EXTT2=
EXTT3=
EXTT4=
EXTT5=
EXTT6=
EXTT7=
EXTT8=
EXTT9=
EXTT10=
EXTT11=
PLAYORDER=
